<?xml version="1.0" encoding="UTF-8" standalone="no"?>
<!-- Created with Inkscape (http://www.inkscape.org/) -->

<svg
   xmlns:dc="http://purl.org/dc/elements/1.1/"
   xmlns:cc="http://creativecommons.org/ns#"
   xmlns:rdf="http://www.w3.org/1999/02/22-rdf-syntax-ns#"
   xmlns:svg="http://www.w3.org/2000/svg"
   xmlns="http://www.w3.org/2000/svg"
   xmlns:sodipodi="http://sodipodi.sourceforge.net/DTD/sodipodi-0.dtd"
   xmlns:inkscape="http://www.inkscape.org/namespaces/inkscape"
   width="155.02844"
   height="238.50552"
   viewBox="0 0 41.018044 63.104553"
   version="1.1"
   id="svg8"
   inkscape:version="0.92.4 (33fec40, 2019-01-16)"
   sodipodi:docname="converter.svg">
  <defs
     id="defs2">
    <inkscape:path-effect
       effect="spiro"
       id="path-effect91"
       is_visible="true" />
    <inkscape:path-effect
       effect="bspline"
       id="path-effect87"
       is_visible="true"
       weight="33.333333"
       steps="2"
       helper_size="0"
       apply_no_weight="true"
       apply_with_weight="true"
       only_selected="false" />
    <inkscape:path-effect
       effect="spiro"
       id="path-effect59"
       is_visible="true" />
    <inkscape:path-effect
       effect="bspline"
       id="path-effect51"
       is_visible="true"
       weight="33.333333"
       steps="2"
       helper_size="0"
       apply_no_weight="true"
       apply_with_weight="true"
       only_selected="false" />
    <inkscape:path-effect
       effect="bspline"
       id="path-effect30"
       is_visible="true"
       weight="33.333333"
       steps="2"
       helper_size="0"
       apply_no_weight="true"
       apply_with_weight="true"
       only_selected="false" />
    <inkscape:path-effect
       effect="spiro"
       id="path-effect59-3"
       is_visible="true" />
    <inkscape:path-effect
       effect="spiro"
       id="path-effect91-6"
       is_visible="true" />
    <inkscape:path-effect
       effect="bspline"
       id="path-effect87-7"
       is_visible="true"
       weight="33.333333"
       steps="2"
       helper_size="0"
       apply_no_weight="true"
       apply_with_weight="true"
       only_selected="false" />
    <inkscape:path-effect
       effect="bspline"
       id="path-effect87-0"
       is_visible="true"
       weight="33.333333"
       steps="2"
       helper_size="0"
       apply_no_weight="true"
       apply_with_weight="true"
       only_selected="false" />
    <inkscape:path-effect
       effect="spiro"
       id="path-effect91-9"
       is_visible="true" />
  </defs>
  <sodipodi:namedview
     id="base"
     pagecolor="#ffffff"
     bordercolor="#666666"
     borderopacity="1.0"
     inkscape:pageopacity="0.0"
     inkscape:pageshadow="2"
     inkscape:zoom="1.4"
     inkscape:cx="304.64343"
     inkscape:cy="110.96"
     inkscape:document-units="mm"
     inkscape:current-layer="layer2"
     showgrid="false"
     inkscape:window-width="1366"
     inkscape:window-height="704"
     inkscape:window-x="0"
     inkscape:window-y="27"
     inkscape:window-maximized="1"
     units="px"
     fit-margin-top="0"
     fit-margin-left="0"
     fit-margin-right="0"
     fit-margin-bottom="0" />
  <metadata
     id="metadata5">
    <rdf:RDF>
      <cc:Work
         rdf:about="">
        <dc:format>image/svg+xml</dc:format>
        <dc:type
           rdf:resource="http://purl.org/dc/dcmitype/StillImage" />
        <dc:title></dc:title>
      </cc:Work>
    </rdf:RDF>
  </metadata>
  <g
     inkscape:label="Layer 1"
     inkscape:groupmode="layer"
     id="layer1"
     transform="translate(0.06011162,-236.80107)">
    <path
       style="fill:#00d4ff;fill-opacity:0;stroke-width:0.35663098"
       d="m 18.384378,299.16346 c -6.434026,-1.61478 -11.6361933,-7.11338 -13.3705,-14.13234 -2.5292037,-10.23604 -0.4398748,-21.45808 5.033051,-27.03313 3.557121,-3.62349 7.354826,-5.08008 13.245314,-5.08008 3.967027,0 7.39369,0.90719 10.464899,2.77047 1.472353,0.89324 1.528164,0.99171 1.528164,2.69564 v 1.76856 l -1.99577,-1.44731 c -4.797277,-3.47894 -12.245523,-4.09309 -17.295338,-1.42606 -1.868944,0.98705 -4.486591,3.78445 -5.698718,6.09002 -3.7236583,7.08268 -3.1721055,20.31095 1.134477,27.20889 2.605801,4.17378 6.168144,5.99754 11.762817,6.02209 4.101072,0.0169 6.47294,-0.63916 9.759564,-2.70393 2.422304,-1.52181 2.834984,-1.27892 1.746189,1.02768 -0.498535,1.05613 -1.143588,1.61489 -2.918301,2.52782 -4.334562,2.22976 -8.971131,2.82219 -13.395848,1.71168 z"
       id="path4796"
       inkscape:connector-curvature="0" />
    <path
       style="fill:#00d4ff;fill-opacity:0;stroke-width:0.35663098"
       d="m 18.384378,299.16346 c -6.434026,-1.61478 -11.6361933,-7.11338 -13.3705,-14.13234 -2.5292037,-10.23604 -0.4398748,-21.45808 5.033051,-27.03313 3.557121,-3.62349 7.354826,-5.08008 13.245314,-5.08008 3.967027,0 7.39369,0.90719 10.464899,2.77047 1.472353,0.89324 1.528164,0.99171 1.528164,2.69564 v 1.76856 l -1.99577,-1.44731 c -4.797277,-3.47894 -12.245523,-4.09309 -17.295338,-1.42606 -1.868944,0.98705 -4.486591,3.78445 -5.698718,6.09002 -3.7236583,7.08268 -3.1721055,20.31095 1.134477,27.20889 2.605801,4.17378 6.168144,5.99754 11.762817,6.02209 4.101072,0.0169 6.47294,-0.63916 9.759564,-2.70393 2.422304,-1.52181 2.834984,-1.27892 1.746189,1.02768 -0.498535,1.05613 -1.143588,1.61489 -2.918301,2.52782 -4.334562,2.22976 -8.971131,2.82219 -13.395848,1.71168 z"
       id="path4798"
       inkscape:connector-curvature="0" />
    <path
       style="fill:#00d4ff;fill-opacity:0;stroke-width:0.35663098"
       d="m 18.384378,299.16346 c -6.434026,-1.61478 -11.6361933,-7.11338 -13.3705,-14.13234 -2.5292037,-10.23604 -0.4398748,-21.45808 5.033051,-27.03313 3.557121,-3.62349 7.354826,-5.08008 13.245314,-5.08008 3.967027,0 7.39369,0.90719 10.464899,2.77047 1.472353,0.89324 1.528164,0.99171 1.528164,2.69564 v 1.76856 l -1.99577,-1.44731 c -4.797277,-3.47894 -12.245523,-4.09309 -17.295338,-1.42606 -1.868944,0.98705 -4.486591,3.78445 -5.698718,6.09002 -3.7236583,7.08268 -3.1721055,20.31095 1.134477,27.20889 2.605801,4.17378 6.168144,5.99754 11.762817,6.02209 4.101072,0.0169 6.47294,-0.63916 9.759564,-2.70393 2.422304,-1.52181 2.834984,-1.27892 1.746189,1.02768 -0.498535,1.05613 -1.143588,1.61489 -2.918301,2.52782 -4.334562,2.22976 -8.971131,2.82219 -13.395848,1.71168 z"
       id="path4800"
       inkscape:connector-curvature="0" />
    <path
       style="fill:#00d4ff;fill-opacity:0;stroke-width:0.35663098"
       d="m 18.384378,299.16346 c -6.434026,-1.61478 -11.6361933,-7.11338 -13.3705,-14.13234 -2.5292037,-10.23604 -0.4398748,-21.45808 5.033051,-27.03313 3.557121,-3.62349 7.354826,-5.08008 13.245314,-5.08008 3.967027,0 7.39369,0.90719 10.464899,2.77047 1.472353,0.89324 1.528164,0.99171 1.528164,2.69564 v 1.76856 l -1.99577,-1.44731 c -4.797277,-3.47894 -12.245523,-4.09309 -17.295338,-1.42606 -1.868944,0.98705 -4.486591,3.78445 -5.698718,6.09002 -3.7236583,7.08268 -3.1721055,20.31095 1.134477,27.20889 2.605801,4.17378 6.168144,5.99754 11.762817,6.02209 4.101072,0.0169 6.47294,-0.63916 9.759564,-2.70393 2.422304,-1.52181 2.834984,-1.27892 1.746189,1.02768 -0.498535,1.05613 -1.143588,1.61489 -2.918301,2.52782 -4.334562,2.22976 -8.971131,2.82219 -13.395848,1.71168 z"
       id="path4802"
       inkscape:connector-curvature="0" />
    <path
       style="fill:#00d4ff;fill-opacity:0;stroke-width:0.35663098"
       d="m 18.384378,299.16346 c -6.434026,-1.61478 -11.6361933,-7.11338 -13.3705,-14.13234 -2.5292037,-10.23604 -0.4398748,-21.45808 5.033051,-27.03313 3.557121,-3.62349 7.354826,-5.08008 13.245314,-5.08008 3.967027,0 7.39369,0.90719 10.464899,2.77047 1.472353,0.89324 1.528164,0.99171 1.528164,2.69564 v 1.76856 l -1.99577,-1.44731 c -4.797277,-3.47894 -12.245523,-4.09309 -17.295338,-1.42606 -1.868944,0.98705 -4.486591,3.78445 -5.698718,6.09002 -3.7236583,7.08268 -3.1721055,20.31095 1.134477,27.20889 2.605801,4.17378 6.168144,5.99754 11.762817,6.02209 4.101072,0.0169 6.47294,-0.63916 9.759564,-2.70393 2.422304,-1.52181 2.834984,-1.27892 1.746189,1.02768 -0.498535,1.05613 -1.143588,1.61489 -2.918301,2.52782 -4.334562,2.22976 -8.971131,2.82219 -13.395848,1.71168 z"
       id="path4804"
       inkscape:connector-curvature="0" />
    <path
       style="fill:#00d4ff;fill-opacity:0;stroke-width:0.35663098"
       d="m 18.384378,299.16346 c -6.434026,-1.61478 -11.6361933,-7.11338 -13.3705,-14.13234 -2.5292037,-10.23604 -0.4398748,-21.45808 5.033051,-27.03313 3.557121,-3.62349 7.354826,-5.08008 13.245314,-5.08008 3.967027,0 7.39369,0.90719 10.464899,2.77047 1.472353,0.89324 1.528164,0.99171 1.528164,2.69564 v 1.76856 l -1.99577,-1.44731 c -4.797277,-3.47894 -12.245523,-4.09309 -17.295338,-1.42606 -1.868944,0.98705 -4.486591,3.78445 -5.698718,6.09002 -3.7236583,7.08268 -3.1721055,20.31095 1.134477,27.20889 2.605801,4.17378 6.168144,5.99754 11.762817,6.02209 4.101072,0.0169 6.47294,-0.63916 9.759564,-2.70393 2.422304,-1.52181 2.834984,-1.27892 1.746189,1.02768 -0.498535,1.05613 -1.143588,1.61489 -2.918301,2.52782 -4.334562,2.22976 -8.971131,2.82219 -13.395848,1.71168 z"
       id="path4806"
       inkscape:connector-curvature="0" />
  </g>
  <g
     inkscape:groupmode="layer"
     id="layer2"
     inkscape:label="Layer 2"
     style="display:inline"
     transform="translate(0.06011162,-236.80107)">
    <path
       style="fill:#ffffff;stroke:#000000;stroke-width:1.8726809;stroke-linecap:butt;stroke-linejoin:miter;stroke-miterlimit:4;stroke-dasharray:none;stroke-dashoffset:0;stroke-opacity:1"
       d="m 18.384378,299.16346 c -5.052828,0.17403 -10.1796418,-0.18174 -15.2336165,-0.0433 -1.4260069,-0.007 -1.7564829,-0.37671 -1.9484826,-0.89522 -0.24245736,-0.65459 -0.1221852,-1.56015 -0.1282495,-2.41083 -0.068696,-18.38809 -0.13778246,-36.78078 -0.20762316,-55.17027 -0.10332307,-1.94633 1.50621536,-3.11723 3.73813036,-2.8928 6.8502654,0.20572 13.5686064,0.275 20.3520384,0.41347 1.090848,-0.036 0.415909,3.64991 0.623058,3.71934 -0.137633,4.95024 -0.276308,6.40494 -0.415307,11.36463 5.82e-4,0.0647 5.82e-4,0.13707 0,0.20641 -5.83e-4,0.0725 -0.103819,3.15107 2.388251,3.15107 2.492082,0 11.889329,0.10325 11.889329,0.10325 l 0.103802,4.13257 -21.390414,0.10326 c 0,0 -3.115096,-0.10326 -3.167013,3.92597 -0.05198,4.02931 -0.259558,21.69614 -0.259558,21.69614 0,0 -0.103823,3.46103 4.15347,3.40936 4.25731,-0.0503 20.55972,0.15538 20.55972,0.15538 l 0.05198,8.88504 c -7.667257,0.18684 -15.006233,0.0433 -21.109341,0.14652 z"
       id="path22"
       inkscape:connector-curvature="0"
       sodipodi:nodetypes="ccscccccccsccccccccc" />
    <path
       style="fill:#ffffff;stroke:#000000;stroke-width:1.66440952;stroke-linecap:butt;stroke-linejoin:miter;stroke-miterlimit:4;stroke-dasharray:none;stroke-opacity:1"
       d="m 28.27441,237.94353 c -0.221624,5.22027 0.126165,10.46537 -0.121159,15.68364 0.526086,-5.6e-4 1.050593,-5.6e-4 1.575211,0 2.771504,-0.0153 5.547337,-0.0366 8.320322,-0.051 -2.268841,-1.7974 -4.064258,-3.95776 -5.463585,-6.09096 -3.174918,-4.84019 -4.310776,-9.54053 -4.310776,-9.54053 z"
       id="path26"
       inkscape:connector-curvature="0"
       sodipodi:nodetypes="ccccscc" />
    <path
       style="fill:#ffffff;stroke:#000000;stroke-width:0.61019635;stroke-linecap:butt;stroke-linejoin:miter;stroke-miterlimit:4;stroke-dasharray:none;stroke-opacity:1"
       d="m 44.821807,99.822421 c -1.055053,-0.01575 -3.16542,-0.04724 -4.354551,0.259739 -1.18913,0.30699 -1.456832,0.95261 -1.582886,2.61482 -0.126055,1.66221 -0.110313,4.33822 0.08247,5.85422 0.192779,1.516 0.578932,1.88606 2.736645,2.05929 2.157713,0.17322 6.095026,0.15746 8.890421,0.13382 2.795396,-0.0236 4.449152,-0.0551 5.441284,-0.30723 0.992132,-0.2521 1.322916,-0.72465 1.480303,-2.35371 0.157387,-1.62907 0.141627,-4.41852 -0.0867,-6.00113 -0.228328,-1.58262 -0.669341,-1.96063 -2.630057,-2.133878 -1.960716,-0.173249 -5.441074,-0.141754 -7.181472,-0.126005 -1.740399,0.01575 -1.740399,0.01581 -2.795452,6.4e-5 z"
       id="path28"
       inkscape:connector-curvature="0"
       inkscape:path-effect="#path-effect30"
       inkscape:original-d="m 45.87686,99.838167 c -2.110102,-0.03176 -4.220469,-0.06326 -6.3311,-0.09449 -0.267502,0.645523 -0.535202,1.291153 -0.803201,1.937123 0.01603,2.67839 0.03176,5.3544 0.04725,8.032 0.36253,0.36199 0.756219,0.72419 1.13393,1.08668 3.937455,-0.016 7.874768,-0.0318 11.811754,-0.0473 1.6538,-0.0318 3.307556,-0.0633 4.960938,-0.0945 0.330941,-0.47266 0.661723,-0.94521 0.992187,-1.41741 2.65e-4,-2.78606 -0.03123,-5.57542 -0.04725,-8.36273 -0.440667,-0.3782 -0.881679,-0.75621 -1.322917,-1.133923 -3.480438,0.03123 -6.960796,0.06273 -10.441591,0.09449 z"
       transform="matrix(1.2099043,0,0,2.2203978,-29.126961,42.612503)" />
    <path
       style="fill:#008080;fill-opacity:0;stroke-width:0.02459757"
       d="m 38.412587,270.76688 v -0.19413 h 1.701708 1.701709 v -0.18489 -0.18489 h -1.701709 -1.701708 v -0.10168 -0.10169 h 1.865334 1.865333 v 0.38826 0.38826 l 0.744496,-7e-5 0.744497,-8e-5 -0.108585,-0.0374 c -0.06603,-0.0227 -0.136561,-0.0716 -0.179986,-0.12473 l -0.07141,-0.0873 -0.0087,-2.34342 -0.0087,-2.34343 h -0.604879 -0.604805 v 0.28658 0.28657 h -1.81627 -1.816248 v -0.10168 -0.10169 h 1.652622 1.652621 v -0.18489 -0.18488 h -1.652621 -1.652622 v -0.14791 -0.14791 H 55.34576 72.278854 l 0.01042,-0.0508 0.01042,-0.0508 1.472632,0.001 c 1.478054,10e-4 1.92936,0.0155 2.325602,0.0738 0.155626,0.0229 1.502612,0.0266 9.587948,0.0266 h 9.406889 v 0.10169 0.10168 h -9.017336 -9.01724 l 0.177703,0.098 c 0.460417,0.25397 0.683399,0.5972 0.686997,1.05752 0.0023,0.303 -0.06249,0.47715 -0.264598,0.71047 -0.170056,0.19633 -0.432742,0.36365 -0.711717,0.45334 -0.09,0.0289 -0.167639,0.0543 -0.17255,0.0565 -0.0049,0.002 0.08345,0.0573 0.196353,0.12264 0.242905,0.14053 0.47245,0.32511 0.723837,0.58205 0.306232,0.313 1.297683,1.5047 1.297683,1.55978 0,0.0349 -0.02705,0.0616 -0.08378,0.0826 -0.07223,0.0267 -0.165407,0.0302 -0.675575,0.0252 l -0.591794,-0.006 -0.07766,-0.0555 c -0.04272,-0.0305 -0.298881,-0.31757 -0.569268,-0.63789 -0.722813,-0.85628 -0.926696,-1.04877 -1.265437,-1.19474 -0.290008,-0.12496 -0.435021,-0.14257 -1.243272,-0.15094 l -0.727029,-0.007 -0.0093,0.98328 -0.0093,0.98328 -0.097,0.0471 c -0.09544,0.0464 -0.103518,0.047 -0.501101,0.0373 -0.487664,-0.0119 -0.661239,-0.0503 -0.77335,-0.17105 -0.06822,-0.0735 -0.06847,-0.0814 -0.07727,-2.32471 l -0.0087,-2.25098 h -2.584656 -2.584652 v 0.32355 0.32355 h -2.127116 -2.127135 v 0.63786 0.63785 h 2.028959 2.028962 v 0.37902 0.37901 h -2.012767 -2.012597 v 0.78577 0.78576 h 2.159857 2.159861 v 0.37901 0.37902 h -2.928902 -2.9289 v -2.45898 -2.45897 H 60.76392 60.174868 v 0.28657 0.28657 H 58.65315 57.131429 v 2.18165 2.18165 h 18.980587 18.980589 v 0.0924 0.0924 H 66.75258 38.412596 Z m 10.277481,-0.0231 c -0.133114,-0.0382 -0.130083,-0.035 -0.773365,-0.7996 -0.260945,-0.31015 -0.534953,-0.62214 -0.608902,-0.69332 -0.199121,-0.19167 -0.457662,-0.36531 -0.645067,-0.43325 -0.285243,-0.10341 -0.405783,-0.11601 -1.20523,-0.12598 l -0.727304,-0.009 -0.0091,1.00219 -0.0091,1.00219 -0.09182,0.0446 -0.09182,0.0446 2.13714,-4e-5 c 2.055843,-2e-5 2.132851,-10e-4 2.024386,-0.0324 z m 7.0014,-2.14927 v -2.18165 h -1.472633 -1.472633 v -0.28699 -0.28699 l -0.597233,0.005 -0.597232,0.005 -0.0083,2.36191 -0.0083,2.36192 h -0.08168 c -0.06895,0 -0.08168,0.009 -0.08168,0.0555 v 0.0555 h -0.665793 c -0.620309,0 -0.669767,0.002 -0.723994,0.0363 -0.04864,0.0304 -0.110021,0.0373 -0.373233,0.0424 -0.173262,0.003 1.124474,0.008 2.88386,0.01 l 3.198883,0.004 z m -11.396534,1.99693 0.106349,-1.7e-4 v -0.96944 c 0,-0.57136 0.01283,-0.98852 0.03127,-1.0159 0.06596,-0.098 0.127622,-0.10515 0.9061,-0.10465 0.394025,2.1e-4 0.804508,0.01 0.91218,0.0207 0.460159,0.0475 0.880203,0.22608 1.210798,0.51481 0.140651,0.12283 0.52936,0.56049 1.138479,1.28182 l 0.214669,0.25422 h 0.411264 c 0.226201,0 0.411268,-0.003 0.411268,-0.006 0,-0.003 -0.181665,-0.22167 -0.403709,-0.48533 -0.951711,-1.13012 -1.202088,-1.35982 -1.716424,-1.57472 -0.219477,-0.0917 -0.238972,-0.10517 -0.229769,-0.15877 0.0093,-0.0538 0.03655,-0.0664 0.337306,-0.15505 0.701711,-0.20685 1.003632,-0.52733 1.001697,-1.06328 -0.0026,-0.72712 -0.611978,-1.1285 -1.891784,-1.24613 -0.243436,-0.0224 -0.662023,-0.0317 -1.736723,-0.0388 l -1.415976,-0.009 0.0087,2.33633 c 0.0047,1.28499 0.02141,2.35089 0.03683,2.36867 0.03897,0.0449 0.203515,0.0696 0.397394,0.0596 0.09,-0.005 0.211486,-0.009 0.269984,-0.009 z m 12.509187,-2.19106 v -2.17241 h 1.50536 1.505356 v -0.19421 -0.19422 l -3.36251,0.005 -3.362511,0.005 v 0.18489 0.18488 l 1.464453,0.005 1.464452,0.005 v 2.17221 2.17222 h 0.392699 0.392701 z m 10.079348,1.97827 v -0.19413 h -2.176223 -2.176222 v -0.9705 -0.97051 l 2.02078,-0.005 2.020777,-0.005 0.0093,-0.18951 0.0094,-0.1895 H 64.56112 62.531015 v -0.82275 -0.82274 h 2.127134 2.127138 v -0.18483 -0.18489 h -2.536201 -2.536199 v 2.36654 2.36653 h 2.585287 2.585286 z m -15.675346,-2.2556 v -2.37578 l -1.955332,2.1e-4 -1.955325,2.1e-4 0.249574,0.0616 c 0.46331,0.11429 0.713409,0.21967 0.931947,0.39269 0.179496,0.14212 0.31216,0.30694 0.392941,0.48821 0.08585,0.19264 0.0884,0.71161 0.0043,0.88745 -0.147212,0.30801 -0.538491,0.61865 -0.922211,0.73216 l -0.177173,0.0524 0.235231,0.13926 c 0.44947,0.2661 0.79927,0.6234 1.791511,1.82994 l 0.137687,0.16742 h 0.633394 0.633397 z m 22.22038,1.211 c 0.0091,-0.53385 0.02818,-0.98403 0.04265,-1.0004 0.06285,-0.0712 0.168149,-0.0804 0.901706,-0.0787 0.993761,0.002 1.260845,0.0434 1.670836,0.25788 0.349632,0.18287 0.557433,0.38838 1.377228,1.36204 l 0.369714,0.4391 h 0.385929 c 0.212267,0 0.392508,-0.006 0.400541,-0.0139 0.01356,-0.0129 -0.452067,-0.57724 -0.919096,-1.11393 -0.431723,-0.49612 -0.768482,-0.76501 -1.15914,-0.92554 -0.207989,-0.0855 -0.226298,-0.0983 -0.217028,-0.15242 0.0093,-0.0543 0.0353,-0.0664 0.321011,-0.15001 0.207557,-0.0607 0.367273,-0.12355 0.480539,-0.18909 0.405128,-0.23442 0.601293,-0.6515 0.503189,-1.06988 -0.103034,-0.43943 -0.415832,-0.71446 -0.997802,-0.87734 l -0.266535,-0.0746 h -1.85593 -1.855935 l 3.66e-4,2.21401 c 3.3e-4,1.2177 0.0091,2.23215 0.01957,2.25432 0.0106,0.0222 0.04347,0.0462 0.07319,0.0534 0.06528,0.0158 0.47357,0.0412 0.610371,0.038 l 0.09818,-0.002 0.01634,-0.97065 z"
       id="path3900"
       inkscape:connector-curvature="0" />
    <path
       style="fill:#008080;fill-opacity:0;stroke-width:0.02459757"
       d="m 38.412587,270.76688 v -0.19413 h 1.701708 1.701709 v -0.18489 -0.18489 h -1.701709 -1.701708 v -0.10168 -0.10169 h 1.865334 1.865333 v 0.38826 0.38826 l 0.744496,-7e-5 0.744497,-8e-5 -0.108585,-0.0374 c -0.06603,-0.0227 -0.136561,-0.0716 -0.179986,-0.12473 l -0.07141,-0.0873 -0.0087,-2.34342 -0.0087,-2.34343 h -0.604879 -0.604805 v 0.28658 0.28657 h -1.81627 -1.816248 v -0.10168 -0.10169 h 1.652622 1.652621 v -0.18489 -0.18488 h -1.652621 -1.652622 v -0.14791 -0.14791 H 55.34576 72.278854 l 0.01042,-0.0508 0.01042,-0.0508 1.472632,0.001 c 1.478054,10e-4 1.92936,0.0155 2.325602,0.0738 0.155626,0.0229 1.502612,0.0266 9.587948,0.0266 h 9.406889 v 0.10169 0.10168 h -9.017336 -9.01724 l 0.177703,0.098 c 0.460417,0.25397 0.683399,0.5972 0.686997,1.05752 0.0023,0.303 -0.06249,0.47715 -0.264598,0.71047 -0.170056,0.19633 -0.432742,0.36365 -0.711717,0.45334 -0.09,0.0289 -0.167639,0.0543 -0.17255,0.0565 -0.0049,0.002 0.08345,0.0573 0.196353,0.12264 0.242905,0.14053 0.47245,0.32511 0.723837,0.58205 0.306232,0.313 1.297683,1.5047 1.297683,1.55978 0,0.0349 -0.02705,0.0616 -0.08378,0.0826 -0.07223,0.0267 -0.165407,0.0302 -0.675575,0.0252 l -0.591794,-0.006 -0.07766,-0.0555 c -0.04272,-0.0305 -0.298881,-0.31757 -0.569268,-0.63789 -0.722813,-0.85628 -0.926696,-1.04877 -1.265437,-1.19474 -0.290008,-0.12496 -0.435021,-0.14257 -1.243272,-0.15094 l -0.727029,-0.007 -0.0093,0.98328 -0.0093,0.98328 -0.097,0.0471 c -0.09544,0.0464 -0.103518,0.047 -0.501101,0.0373 -0.487664,-0.0119 -0.661239,-0.0503 -0.77335,-0.17105 -0.06822,-0.0735 -0.06847,-0.0814 -0.07727,-2.32471 l -0.0087,-2.25098 h -2.584656 -2.584652 v 0.32355 0.32355 h -2.127116 -2.127135 v 0.63786 0.63785 h 2.028959 2.028962 v 0.37902 0.37901 h -2.012767 -2.012597 v 0.78577 0.78576 h 2.159857 2.159861 v 0.37901 0.37902 h -2.928902 -2.9289 v -2.45898 -2.45897 H 60.76392 60.174868 v 0.28657 0.28657 H 58.65315 57.131429 v 2.18165 2.18165 h 18.980587 18.980589 v 0.0924 0.0924 H 66.75258 38.412596 Z m 10.277481,-0.0231 c -0.133114,-0.0382 -0.130083,-0.035 -0.773365,-0.7996 -0.260945,-0.31015 -0.534953,-0.62214 -0.608902,-0.69332 -0.199121,-0.19167 -0.457662,-0.36531 -0.645067,-0.43325 -0.285243,-0.10341 -0.405783,-0.11601 -1.20523,-0.12598 l -0.727304,-0.009 -0.0091,1.00219 -0.0091,1.00219 -0.09182,0.0446 -0.09182,0.0446 2.13714,-4e-5 c 2.055843,-2e-5 2.132851,-10e-4 2.024386,-0.0324 z m 7.0014,-2.14927 v -2.18165 h -1.472633 -1.472633 v -0.28699 -0.28699 l -0.597233,0.005 -0.597232,0.005 -0.0083,2.36191 -0.0083,2.36192 h -0.08168 c -0.06895,0 -0.08168,0.009 -0.08168,0.0555 v 0.0555 h -0.665793 c -0.620309,0 -0.669767,0.002 -0.723994,0.0363 -0.04864,0.0304 -0.110021,0.0373 -0.373233,0.0424 -0.173262,0.003 1.124474,0.008 2.88386,0.01 l 3.198883,0.004 z m -11.396534,1.99693 0.106349,-1.7e-4 v -0.96944 c 0,-0.57136 0.01283,-0.98852 0.03127,-1.0159 0.06596,-0.098 0.127622,-0.10515 0.9061,-0.10465 0.394025,2.1e-4 0.804508,0.01 0.91218,0.0207 0.460159,0.0475 0.880203,0.22608 1.210798,0.51481 0.140651,0.12283 0.52936,0.56049 1.138479,1.28182 l 0.214669,0.25422 h 0.411264 c 0.226201,0 0.411268,-0.003 0.411268,-0.006 0,-0.003 -0.181665,-0.22167 -0.403709,-0.48533 -0.951711,-1.13012 -1.202088,-1.35982 -1.716424,-1.57472 -0.219477,-0.0917 -0.238972,-0.10517 -0.229769,-0.15877 0.0093,-0.0538 0.03655,-0.0664 0.337306,-0.15505 0.701711,-0.20685 1.003632,-0.52733 1.001697,-1.06328 -0.0026,-0.72712 -0.611978,-1.1285 -1.891784,-1.24613 -0.243436,-0.0224 -0.662023,-0.0317 -1.736723,-0.0388 l -1.415976,-0.009 0.0087,2.33633 c 0.0047,1.28499 0.02141,2.35089 0.03683,2.36867 0.03897,0.0449 0.203515,0.0696 0.397394,0.0596 0.09,-0.005 0.211486,-0.009 0.269984,-0.009 z m 12.509187,-2.19106 v -2.17241 h 1.50536 1.505356 v -0.19421 -0.19422 l -3.36251,0.005 -3.362511,0.005 v 0.18489 0.18488 l 1.464453,0.005 1.464452,0.005 v 2.17221 2.17222 h 0.392699 0.392701 z m 10.079348,1.97827 v -0.19413 h -2.176223 -2.176222 v -0.9705 -0.97051 l 2.02078,-0.005 2.020777,-0.005 0.0093,-0.18951 0.0094,-0.1895 H 64.56112 62.531015 v -0.82275 -0.82274 h 2.127134 2.127138 v -0.18483 -0.18489 h -2.536201 -2.536199 v 2.36654 2.36653 h 2.585287 2.585286 z m -15.675346,-2.2556 v -2.37578 l -1.955332,2.1e-4 -1.955325,2.1e-4 0.249574,0.0616 c 0.46331,0.11429 0.713409,0.21967 0.931947,0.39269 0.179496,0.14212 0.31216,0.30694 0.392941,0.48821 0.08585,0.19264 0.0884,0.71161 0.0043,0.88745 -0.147212,0.30801 -0.538491,0.61865 -0.922211,0.73216 l -0.177173,0.0524 0.235231,0.13926 c 0.44947,0.2661 0.79927,0.6234 1.791511,1.82994 l 0.137687,0.16742 h 0.633394 0.633397 z m 22.22038,1.211 c 0.0091,-0.53385 0.02818,-0.98403 0.04265,-1.0004 0.06285,-0.0712 0.168149,-0.0804 0.901706,-0.0787 0.993761,0.002 1.260845,0.0434 1.670836,0.25788 0.349632,0.18287 0.557433,0.38838 1.377228,1.36204 l 0.369714,0.4391 h 0.385929 c 0.212267,0 0.392508,-0.006 0.400541,-0.0139 0.01356,-0.0129 -0.452067,-0.57724 -0.919096,-1.11393 -0.431723,-0.49612 -0.768482,-0.76501 -1.15914,-0.92554 -0.207989,-0.0855 -0.226298,-0.0983 -0.217028,-0.15242 0.0093,-0.0543 0.0353,-0.0664 0.321011,-0.15001 0.207557,-0.0607 0.367273,-0.12355 0.480539,-0.18909 0.405128,-0.23442 0.601293,-0.6515 0.503189,-1.06988 -0.103034,-0.43943 -0.415832,-0.71446 -0.997802,-0.87734 l -0.266535,-0.0746 h -1.85593 -1.855935 l 3.66e-4,2.21401 c 3.3e-4,1.2177 0.0091,2.23215 0.01957,2.25432 0.0106,0.0222 0.04347,0.0462 0.07319,0.0534 0.06528,0.0158 0.47357,0.0412 0.610371,0.038 l 0.09818,-0.002 0.01634,-0.97065 z"
       id="path3902"
       inkscape:connector-curvature="0" />
    <path
       style="fill:#008080;fill-opacity:0;stroke-width:0.02459757"
       d="m 38.412587,270.76688 v -0.19413 h 1.701708 1.701709 v -0.18489 -0.18489 h -1.701709 -1.701708 v -0.10168 -0.10169 h 1.865334 1.865333 v 0.38826 0.38826 l 0.744496,-7e-5 0.744497,-8e-5 -0.108585,-0.0374 c -0.06603,-0.0227 -0.136561,-0.0716 -0.179986,-0.12473 l -0.07141,-0.0873 -0.0087,-2.34342 -0.0087,-2.34343 h -0.604879 -0.604805 v 0.28658 0.28657 h -1.81627 -1.816248 v -0.10168 -0.10169 h 1.652622 1.652621 v -0.18489 -0.18488 h -1.652621 -1.652622 v -0.14791 -0.14791 H 55.34576 72.278854 l 0.01042,-0.0508 0.01042,-0.0508 1.472632,0.001 c 1.478054,10e-4 1.92936,0.0155 2.325602,0.0738 0.155626,0.0229 1.502612,0.0266 9.587948,0.0266 h 9.406889 v 0.10169 0.10168 h -9.017336 -9.01724 l 0.177703,0.098 c 0.460417,0.25397 0.683399,0.5972 0.686997,1.05752 0.0023,0.303 -0.06249,0.47715 -0.264598,0.71047 -0.170056,0.19633 -0.432742,0.36365 -0.711717,0.45334 -0.09,0.0289 -0.167639,0.0543 -0.17255,0.0565 -0.0049,0.002 0.08345,0.0573 0.196353,0.12264 0.242905,0.14053 0.47245,0.32511 0.723837,0.58205 0.306232,0.313 1.297683,1.5047 1.297683,1.55978 0,0.0349 -0.02705,0.0616 -0.08378,0.0826 -0.07223,0.0267 -0.165407,0.0302 -0.675575,0.0252 l -0.591794,-0.006 -0.07766,-0.0555 c -0.04272,-0.0305 -0.298881,-0.31757 -0.569268,-0.63789 -0.722813,-0.85628 -0.926696,-1.04877 -1.265437,-1.19474 -0.290008,-0.12496 -0.435021,-0.14257 -1.243272,-0.15094 l -0.727029,-0.007 -0.0093,0.98328 -0.0093,0.98328 -0.097,0.0471 c -0.09544,0.0464 -0.103518,0.047 -0.501101,0.0373 -0.487664,-0.0119 -0.661239,-0.0503 -0.77335,-0.17105 -0.06822,-0.0735 -0.06847,-0.0814 -0.07727,-2.32471 l -0.0087,-2.25098 h -2.584656 -2.584652 v 0.32355 0.32355 h -2.127116 -2.127135 v 0.63786 0.63785 h 2.028959 2.028962 v 0.37902 0.37901 h -2.012767 -2.012597 v 0.78577 0.78576 h 2.159857 2.159861 v 0.37901 0.37902 h -2.928902 -2.9289 v -2.45898 -2.45897 H 60.76392 60.174868 v 0.28657 0.28657 H 58.65315 57.131429 v 2.18165 2.18165 h 18.980587 18.980589 v 0.0924 0.0924 H 66.75258 38.412596 Z m 10.277481,-0.0231 c -0.133114,-0.0382 -0.130083,-0.035 -0.773365,-0.7996 -0.260945,-0.31015 -0.534953,-0.62214 -0.608902,-0.69332 -0.199121,-0.19167 -0.457662,-0.36531 -0.645067,-0.43325 -0.285243,-0.10341 -0.405783,-0.11601 -1.20523,-0.12598 l -0.727304,-0.009 -0.0091,1.00219 -0.0091,1.00219 -0.09182,0.0446 -0.09182,0.0446 2.13714,-4e-5 c 2.055843,-2e-5 2.132851,-10e-4 2.024386,-0.0324 z m 7.0014,-2.14927 v -2.18165 h -1.472633 -1.472633 v -0.28699 -0.28699 l -0.597233,0.005 -0.597232,0.005 -0.0083,2.36191 -0.0083,2.36192 h -0.08168 c -0.06895,0 -0.08168,0.009 -0.08168,0.0555 v 0.0555 h -0.665793 c -0.620309,0 -0.669767,0.002 -0.723994,0.0363 -0.04864,0.0304 -0.110021,0.0373 -0.373233,0.0424 -0.173262,0.003 1.124474,0.008 2.88386,0.01 l 3.198883,0.004 z m -11.396534,1.99693 0.106349,-1.7e-4 v -0.96944 c 0,-0.57136 0.01283,-0.98852 0.03127,-1.0159 0.06596,-0.098 0.127622,-0.10515 0.9061,-0.10465 0.394025,2.1e-4 0.804508,0.01 0.91218,0.0207 0.460159,0.0475 0.880203,0.22608 1.210798,0.51481 0.140651,0.12283 0.52936,0.56049 1.138479,1.28182 l 0.214669,0.25422 h 0.411264 c 0.226201,0 0.411268,-0.003 0.411268,-0.006 0,-0.003 -0.181665,-0.22167 -0.403709,-0.48533 -0.951711,-1.13012 -1.202088,-1.35982 -1.716424,-1.57472 -0.219477,-0.0917 -0.238972,-0.10517 -0.229769,-0.15877 0.0093,-0.0538 0.03655,-0.0664 0.337306,-0.15505 0.701711,-0.20685 1.003632,-0.52733 1.001697,-1.06328 -0.0026,-0.72712 -0.611978,-1.1285 -1.891784,-1.24613 -0.243436,-0.0224 -0.662023,-0.0317 -1.736723,-0.0388 l -1.415976,-0.009 0.0087,2.33633 c 0.0047,1.28499 0.02141,2.35089 0.03683,2.36867 0.03897,0.0449 0.203515,0.0696 0.397394,0.0596 0.09,-0.005 0.211486,-0.009 0.269984,-0.009 z m 12.509187,-2.19106 v -2.17241 h 1.50536 1.505356 v -0.19421 -0.19422 l -3.36251,0.005 -3.362511,0.005 v 0.18489 0.18488 l 1.464453,0.005 1.464452,0.005 v 2.17221 2.17222 h 0.392699 0.392701 z m 10.079348,1.97827 v -0.19413 h -2.176223 -2.176222 v -0.9705 -0.97051 l 2.02078,-0.005 2.020777,-0.005 0.0093,-0.18951 0.0094,-0.1895 H 64.56112 62.531015 v -0.82275 -0.82274 h 2.127134 2.127138 v -0.18483 -0.18489 h -2.536201 -2.536199 v 2.36654 2.36653 h 2.585287 2.585286 z m -15.675346,-2.2556 v -2.37578 l -1.955332,2.1e-4 -1.955325,2.1e-4 0.249574,0.0616 c 0.46331,0.11429 0.713409,0.21967 0.931947,0.39269 0.179496,0.14212 0.31216,0.30694 0.392941,0.48821 0.08585,0.19264 0.0884,0.71161 0.0043,0.88745 -0.147212,0.30801 -0.538491,0.61865 -0.922211,0.73216 l -0.177173,0.0524 0.235231,0.13926 c 0.44947,0.2661 0.79927,0.6234 1.791511,1.82994 l 0.137687,0.16742 h 0.633394 0.633397 z m 22.22038,1.211 c 0.0091,-0.53385 0.02818,-0.98403 0.04265,-1.0004 0.06285,-0.0712 0.168149,-0.0804 0.901706,-0.0787 0.993761,0.002 1.260845,0.0434 1.670836,0.25788 0.349632,0.18287 0.557433,0.38838 1.377228,1.36204 l 0.369714,0.4391 h 0.385929 c 0.212267,0 0.392508,-0.006 0.400541,-0.0139 0.01356,-0.0129 -0.452067,-0.57724 -0.919096,-1.11393 -0.431723,-0.49612 -0.768482,-0.76501 -1.15914,-0.92554 -0.207989,-0.0855 -0.226298,-0.0983 -0.217028,-0.15242 0.0093,-0.0543 0.0353,-0.0664 0.321011,-0.15001 0.207557,-0.0607 0.367273,-0.12355 0.480539,-0.18909 0.405128,-0.23442 0.601293,-0.6515 0.503189,-1.06988 -0.103034,-0.43943 -0.415832,-0.71446 -0.997802,-0.87734 l -0.266535,-0.0746 h -1.85593 -1.855935 l 3.66e-4,2.21401 c 3.3e-4,1.2177 0.0091,2.23215 0.01957,2.25432 0.0106,0.0222 0.04347,0.0462 0.07319,0.0534 0.06528,0.0158 0.47357,0.0412 0.610371,0.038 l 0.09818,-0.002 0.01634,-0.97065 z"
       id="path3904"
       inkscape:connector-curvature="0" />
    <path
       style="fill:#00d4ff;fill-opacity:0;stroke-width:0.35663098"
       d="m 18.384378,299.16346 c -6.434026,-1.61478 -11.6361933,-7.11338 -13.3705,-14.13234 -2.5292037,-10.23604 -0.4398748,-21.45808 5.033051,-27.03313 3.557121,-3.62349 7.354826,-5.08008 13.245314,-5.08008 3.967027,0 7.39369,0.90719 10.464899,2.77047 1.472353,0.89324 1.528164,0.99171 1.528164,2.69564 v 1.76856 l -1.99577,-1.44731 c -4.797277,-3.47894 -12.245523,-4.09309 -17.295338,-1.42606 -1.868944,0.98705 -4.486591,3.78445 -5.698718,6.09002 -3.7236583,7.08268 -3.1721055,20.31095 1.134477,27.20889 2.605801,4.17378 6.168144,5.99754 11.762817,6.02209 4.101072,0.0169 6.47294,-0.63916 9.759564,-2.70393 2.422304,-1.52181 2.834984,-1.27892 1.746189,1.02768 -0.498535,1.05613 -1.143588,1.61489 -2.918301,2.52782 -4.334562,2.22976 -8.971131,2.82219 -13.395848,1.71168 z"
       id="path4792"
       inkscape:connector-curvature="0" />
    <path
       style="fill:#00d4ff;fill-opacity:0;stroke-width:0.71428573"
       d=""
       id="path4794"
       inkscape:connector-curvature="0"
       transform="scale(0.26458333)" />
  </g>
  <g
     inkscape:groupmode="layer"
     id="layer3"
     inkscape:label="Layer 3"
     transform="translate(0.06011162,-236.80107)">
    <path
       style="fill:#0000ff;fill-opacity:0;stroke-width:0.35663098"
       d="m 18.384378,299.16346 c -6.434026,-1.61478 -11.6361933,-7.11338 -13.3705,-14.13234 -2.5292037,-10.23604 -0.4398748,-21.45808 5.033051,-27.03313 3.557121,-3.62349 7.354826,-5.08008 13.245314,-5.08008 3.967027,0 7.39369,0.90719 10.464899,2.77047 1.472353,0.89324 1.528164,0.99171 1.528164,2.69564 v 1.76856 l -1.99577,-1.44731 c -4.797277,-3.47894 -12.245523,-4.09309 -17.295338,-1.42606 -1.868944,0.98705 -4.486591,3.78445 -5.698718,6.09002 -3.7236583,7.08268 -3.1721055,20.31095 1.134477,27.20889 2.605801,4.17378 6.168144,5.99754 11.762817,6.02209 4.101072,0.0169 6.47294,-0.63916 9.759564,-2.70393 2.422304,-1.52181 2.834984,-1.27892 1.746189,1.02768 -0.498535,1.05613 -1.143588,1.61489 -2.918301,2.52782 -4.334562,2.22976 -8.971131,2.82219 -13.395848,1.71168 z"
       id="path3975"
       inkscape:connector-curvature="0" />
    <path
       style="fill:#0000ff;fill-opacity:0;stroke-width:0.35663098"
       d="m 20.739218,301.69953 c -0.385558,-0.0909 -1.540268,-0.34139 -2.566021,-0.55646 -7.158633,-1.50108 -12.8693062,-7.53892 -14.9155441,-15.77009 -0.9696594,-3.90056 -1.3921447,-9.88723 -0.9438555,-13.37464 0.8002346,-6.22533 3.2741414,-12.1954 6.3512925,-15.32706 2.0938001,-2.13088 5.4786501,-4.30571 7.8611321,-5.05092 2.917194,-0.91245 8.380418,-1.08245 11.523438,-0.35855 2.619935,0.60343 7.84498,3.00253 8.547234,3.9245 0.189806,0.24919 0.443185,1.95426 0.563056,3.78902 0.181238,2.77409 0.124022,3.4332 -0.339718,3.91328 -0.356836,0.36942 -0.70208,0.45758 -0.95867,0.24486 -5.34228,-4.42951 -7.456734,-5.31693 -12.668788,-5.31693 -3.13274,0 -3.740363,0.1124 -5.719943,1.05868 -2.408311,1.15112 -4.815492,3.63038 -6.018324,6.19853 -1.093436,2.33462 -1.7567848,6.43506 -1.75021,10.81886 0.014656,9.82358 3.10156,16.02001 8.991408,18.04912 1.940366,0.66844 2.849391,0.76992 5.574917,0.62234 2.831042,-0.15331 3.612522,-0.35138 5.981232,-1.5159 1.498591,-0.73677 3.389018,-1.90309 4.200952,-2.59186 0.811932,-0.68877 1.64385,-1.25231 1.848708,-1.25231 1.082219,0 0.92979,5.59992 -0.195209,7.17138 -1.274986,1.78098 -3.596315,3.31062 -6.430823,4.2376 -2.639298,0.86312 -7.419636,1.44436 -8.936264,1.08655 z m 8.866323,-2.82214 c 1.406448,-0.49712 3.118767,-1.34729 3.805152,-1.88927 1.36595,-1.07857 2.325553,-3.01892 2.15729,-4.36209 l -0.107421,-0.85753 -1.577288,1.12026 c -6.481655,4.6035 -14.907879,4.69227 -19.827878,0.20887 -0.920477,-0.83879 -2.125191,-2.26211 -2.677147,-3.16292 -2.3773475,-3.87998 -3.82508,-12.16728 -3.0927833,-17.70415 0.8133766,-6.14993 1.9017243,-8.87375 4.8490233,-12.1357 4.688525,-5.18906 14.135408,-5.57116 20.364805,-0.82375 l 2.136519,1.62827 v -2.30816 -2.30812 l -2.541183,-1.31658 c -3.432348,-1.77832 -6.07816,-2.41144 -10.077109,-2.41144 -5.619176,0 -9.228525,1.38667 -13.004506,4.99616 -2.3524985,2.24876 -4.4191895,6.24878 -5.5739843,10.78827 -0.9150915,3.59721 -0.9936272,9.75198 -0.1852062,14.51444 1.4632042,8.61984 6.8912195,14.96167 14.3037435,16.71179 3.130584,0.73912 7.839281,0.44574 11.047973,-0.68835 z"
       id="path3977"
       inkscape:connector-curvature="0" />
    <path
       style="fill:#00d4ff;fill-opacity:0;stroke-width:0.71428573"
       d=""
       id="path3979"
       inkscape:connector-curvature="0"
       transform="scale(0.26458333)" />
    <path
       style="fill:#00d4ff;fill-opacity:0;stroke-width:0.35663098"
       d="m 18.384378,299.16346 c -6.434026,-1.61478 -11.6361933,-7.11338 -13.3705,-14.13234 -2.5292037,-10.23604 -0.4398748,-21.45808 5.033051,-27.03313 3.557121,-3.62349 7.354826,-5.08008 13.245314,-5.08008 3.967027,0 7.39369,0.90719 10.464899,2.77047 1.472353,0.89324 1.528164,0.99171 1.528164,2.69564 v 1.76856 l -1.99577,-1.44731 c -4.797277,-3.47894 -12.245523,-4.09309 -17.295338,-1.42606 -1.868944,0.98705 -4.486591,3.78445 -5.698718,6.09002 -3.7236583,7.08268 -3.1721055,20.31095 1.134477,27.20889 2.605801,4.17378 6.168144,5.99754 11.762817,6.02209 4.101072,0.0169 6.47294,-0.63916 9.759564,-2.70393 2.422304,-1.52181 2.834984,-1.27892 1.746189,1.02768 -0.498535,1.05613 -1.143588,1.61489 -2.918301,2.52782 -4.334562,2.22976 -8.971131,2.82219 -13.395848,1.71168 z"
       id="path4786"
       inkscape:connector-curvature="0" />
    <path
       style="fill:#00d4ff;fill-opacity:0;stroke-width:0.35663098"
       d="m 18.384378,299.16346 c -6.434026,-1.61478 -11.6361933,-7.11338 -13.3705,-14.13234 -2.5292037,-10.23604 -0.4398748,-21.45808 5.033051,-27.03313 3.557121,-3.62349 7.354826,-5.08008 13.245314,-5.08008 3.967027,0 7.39369,0.90719 10.464899,2.77047 1.472353,0.89324 1.528164,0.99171 1.528164,2.69564 v 1.76856 l -1.99577,-1.44731 c -4.797277,-3.47894 -12.245523,-4.09309 -17.295338,-1.42606 -1.868944,0.98705 -4.486591,3.78445 -5.698718,6.09002 -3.7236583,7.08268 -3.1721055,20.31095 1.134477,27.20889 2.605801,4.17378 6.168144,5.99754 11.762817,6.02209 4.101072,0.0169 6.47294,-0.63916 9.759564,-2.70393 2.422304,-1.52181 2.834984,-1.27892 1.746189,1.02768 -0.498535,1.05613 -1.143588,1.61489 -2.918301,2.52782 -4.334562,2.22976 -8.971131,2.82219 -13.395848,1.71168 z"
       id="path4788"
       inkscape:connector-curvature="0" />
    <path
       style="fill:#00d4ff;fill-opacity:0;stroke-width:0.35663098"
       d="m 18.384378,299.16346 c -6.434026,-1.61478 -11.6361933,-7.11338 -13.3705,-14.13234 -2.5292037,-10.23604 -0.4398748,-21.45808 5.033051,-27.03313 3.557121,-3.62349 7.354826,-5.08008 13.245314,-5.08008 3.967027,0 7.39369,0.90719 10.464899,2.77047 1.472353,0.89324 1.528164,0.99171 1.528164,2.69564 v 1.76856 l -1.99577,-1.44731 c -4.797277,-3.47894 -12.245523,-4.09309 -17.295338,-1.42606 -1.868944,0.98705 -4.486591,3.78445 -5.698718,6.09002 -3.7236583,7.08268 -3.1721055,20.31095 1.134477,27.20889 2.605801,4.17378 6.168144,5.99754 11.762817,6.02209 4.101072,0.0169 6.47294,-0.63916 9.759564,-2.70393 2.422304,-1.52181 2.834984,-1.27892 1.746189,1.02768 -0.498535,1.05613 -1.143588,1.61489 -2.918301,2.52782 -4.334562,2.22976 -8.971131,2.82219 -13.395848,1.71168 z"
       id="path4790"
       inkscape:connector-curvature="0" />
  </g>
</svg>
